<svg width="256" height="256" xmlns="http://www.w3.org/2000/svg">
 <title>MathProjectSeriesIcon</title>

 <g>
  <title>Layer 1</title>
  <rect stroke-width="0" rx="48" id="svg_5" height="236" width="236" y="10" x="10" stroke="#000" fill="#fff"/>
  <g stroke="null">
   <g stroke="null">
    <path stroke="null" d="m185.66562,81.85375l0,-11.58792l-101.51891,0l55.13248,51.68042c3.43363,3.22625 3.42068,8.43417 -0.03887,11.63625l-56.3634,52.16375l102.77575,0l0,-11.27375l17.68645,0l0,19.51458c0,4.55542 -3.96487,8.25292 -8.8497,8.25292l-133.03059,0l0,-0.02417c-2.26749,0 -4.53499,-0.80958 -6.25828,-2.42875c-3.43363,-3.22625 -3.42068,-8.43417 0.03887,-11.63625l65.31676,-60.44084l-63.42503,-59.46209c-1.87878,-1.51042 -3.07083,-3.74583 -3.07083,-6.235c0,-4.55542 3.96487,-8.25292 8.8497,-8.25292l131.60531,0c4.88483,0 8.8497,3.6975 8.8497,8.25292l0,19.84083l-17.6994,0l0,0z"/>
   </g>
  </g>
 </g>
</svg>